<?xml version="1.0" encoding="utf-8" ?>
<svg baseProfile="full" height="200mm" version="1.1" viewBox="0,0,200,200" width="200mm" xmlns="http://www.w3.org/2000/svg" xmlns:ev="http://www.w3.org/2001/xml-events" xmlns:xlink="http://www.w3.org/1999/xlink"><defs /><rect fill="#1a1a1a" height="200" width="200" x="0" y="0" /><rect fill="#1a1a1a" height="200" width="180" x="10" y="0" /><text alignment-baseline="middle" fill="#e1ed5e" style="dominant-baseline: central; font-size:9.0px; font-family:Arial;" text-anchor="middle" x="100.0" y="100.0">2025</text><line stroke="#e1ed5e" stroke-width="0.3" x1="100.0" x2="100.0" y1="15.0" y2="10.0" /><path d="M 100.0 14.0 a86.0,86.0 0 0,1 42.46469731375804,11.215312516191453" fill="none" id="id97" stroke="none" /><text fill="#e1ed5e" style="font-size:6.75px; font-family:Arial;" text-anchor="middle"><textPath startOffset="22.20632615414155" xlink:href="#id97">January</textPath></text><line stroke="#e1ed5e" stroke-width="0.3" x1="143.23703022742887" x2="145.7803849466894" y1="26.81831364943548" y2="22.513508569990506" /><path d="M 143.74570117128098 25.957352633546492 a86.0,86.0 0 0,1 28.547481713284135,27.462654790039103" fill="none" id="id98" stroke="none" /><text fill="#e1ed5e" style="font-size:6.75px; font-family:Arial;" text-anchor="middle"><textPath startOffset="19.985693538727396" xlink:href="#id98">February</textPath></text><line stroke="#e1ed5e" stroke-width="0.3" x1="172.23445277983987" x2="176.4835382374775" y1="55.19839476539836" y2="52.563006222186495" /><path d="M 173.08426987136738 54.67131705675599 a86.0,86.0 0 0,1 12.851231095245387,41.99856678651699" fill="none" id="id99" stroke="none" /><text fill="#e1ed5e" style="font-size:6.75px; font-family:Arial;" text-anchor="middle"><textPath startOffset="22.20632615414155" xlink:href="#id99">March</textPath></text><line stroke="#e1ed5e" stroke-width="0.3" x1="184.98032266829074" x2="189.97916517819016" y1="98.17113171792111" y2="98.06355123074" /><path d="M 185.9800911702706 98.14961562048488 a86.0,86.0 0 0,1 -9.607161424134198,41.387399972396054" fill="none" id="id100" stroke="none" /><text fill="#e1ed5e" style="font-size:6.75px; font-family:Arial;" text-anchor="middle"><textPath startOffset="21.466115282336823" xlink:href="#id100">April</textPath></text><line stroke="#e1ed5e" stroke-width="0.3" x1="174.80103733775053" x2="179.2010983576182" y1="140.37084112569926" y2="142.7455964860345" /><path d="M 175.68104954172406 140.8457921977663 a86.0,86.0 0 0,1 -30.038265399797805,32.042727171017184" fill="none" id="id101" stroke="none" /><text fill="#e1ed5e" style="font-size:6.75px; font-family:Arial;" text-anchor="middle"><textPath startOffset="22.206326154141568" xlink:href="#id101">May</textPath></text><line stroke="#e1ed5e" stroke-width="0.3" x1="143.8653032363475" x2="146.44561519142675" y1="172.8068346515853" y2="177.08958963109032" /><path d="M 144.38136562736335 173.6633856474863 a86.0,86.0 0 0,1 -40.68145358897372,12.25698825130547" fill="none" id="id102" stroke="none" /><text fill="#e1ed5e" style="font-size:6.75px; font-family:Arial;" text-anchor="middle"><textPath startOffset="21.466115282336833" xlink:href="#id102">June</textPath></text><path d="M 106.2309692047433 120.05430185196036 l 8.068686391017195 25.968973223472954 a48.19358877305534,48.19358877305534 0 0,0 -0.7943336736138124,0.23932621984135827 l -7.620477742963137 -26.104014812420036" fill="red" stroke="none" /><path d="M 105.18746579009965 120.34920634021253 l 4.156497315895668 16.30495986983186 a37.82641335204491,37.82641335204491 0 0,0 -0.6323256265324241,0.15541025459561006 l -3.8752184046200324 -16.374091382741497" fill="red" stroke="none" /><path d="M 104.83641907484287 120.43548508189849 l 1.4917226820409635 6.303026297647325 a27.47714266238974,27.47714266238974 0 0,0 -0.4611971019404834,0.10496695887280313 l -1.383005430707618 -6.327769990097812" fill="red" stroke="none" /><path d="M 103.7750983002368 120.6578951692458 l 4.579423953070187 25.059283874044507 a46.474277850842014,46.474277850842014 0 0,0 -0.7881838979367196,0.1370358736539931 l -4.147391083661417 -25.134398326219507" fill="red" stroke="none" /><path d="M 103.41894727170886 120.7198165907248 l 0.912998750183681 5.5330384320059 a26.60785886126704,26.60785886126704 0 0,0 -0.45254156816242413,0.07067768595956125 l -0.8176213184127398 -5.547934425312566" fill="red" stroke="none" /><path d="M 103.06178313531738 120.77559828337769 l 2.474961828708834 16.793747449594797 a37.97514033680834,37.97514033680834 0 0,0 -0.6475148571561326,0.08973965903302421 l -2.185518380365871 -16.833861674120424" fill="red" stroke="none" /><path d="M 102.34483914955558 120.86867818915974 l 3.01237555540341 26.809641105881234 a47.97834803528468,47.97834803528468 0 0,0 -0.8214976201047618,0.08515158722497539 l -2.5504453386930455 -26.85752206156197" fill="red" stroke="none" /><path d="M 101.62511606390274 120.93702456842531 l 3.917481065029361 50.470485848184836 a71.62229350441058,71.62229350441058 0 0,0 -1.2299841045767514,0.08482690519024795 l -3.048134199673679 -50.53044109789137" fill="red" stroke="none" /><path d="M 100.90346689309514 120.98055641714683 l 1.0889420531852436 25.28771154368218 a46.31114675220529,46.31114675220529 0 0,0 -0.7967273720085855,0.027440901626497264 l -0.6534943295020059 -25.30270924373477" fill="red" stroke="none" /><line stroke="#e1ed5e" stroke-width="0.3" x1="102.19456741930631" x2="102.32365962044197" y1="184.97166512339345" y2="189.96999836594603" /><path d="M 102.22038585953345 185.97133177190398 a86.0,86.0 0 0,1 -42.740103519485714,-10.115201625700543" fill="none" id="id103" stroke="none" /><text fill="#e1ed5e" style="font-size:6.75px; font-family:Arial;" text-anchor="middle"><textPath startOffset="22.20632615414155" xlink:href="#id103">July</textPath></text><path d="M 100.54218724476979 120.99299961872073 l 0.4082709084513531 15.807880226125722 a36.81315156375301,36.81315156375301 0 0,0 -0.6336074722491002,0.010908127239580581 l -0.13610374630958497 -15.812565830644461" fill="red" stroke="none" /><path d="M 100.18074693466247 120.99922214144158 l 0.2313328851012754 26.87630997413052 a47.87730553327987,47.87730553327987 0 0,0 -0.8241596395274432,0.0 l 0.23133288510125688 -26.87630997413052" fill="red" stroke="none" /><path d="M 99.09653310690486 120.98055641714683 l -1.527996533711022 35.4835553197776 a56.51643945469126,56.51643945469126 0 0,0 -0.9715766178061999,-0.05021941339699314 l 2.1385612199307107 -35.451996099618405" fill="red" stroke="none" /><path d="M 98.01472825383883 120.90594882070398 l -1.5665656762009605 16.49675512395567 a37.570970328789095,37.570970328789095 0 0,0 -0.6432998211490949,-0.06668065675637354 l 1.8502980939556488 -16.467345098743532" fill="red" stroke="none" /><path d="M 96.58105272829116 120.7198165907248 l -5.831676701623668 35.34165989452418 a56.81956696070569,56.81956696070569 0 0,0 -0.9636355815984792,-0.16754039781084615 l 6.439161254694198 -35.23604091819232" fill="red" stroke="none" /><path d="M 95.16358092515715 120.4354850818985 l -6.317984501137936 26.695593583330126 a48.43303929430634,48.43303929430634 0 0,0 -0.8096313978175834,-0.19898769934951877 l 6.77656918369873 -26.582884625666576" fill="red" stroke="none" /><path d="M 94.46302465271185 120.25689768951611 l -7.53952216495211 27.583169428066046 a49.59502806736167,49.59502806736167 0 0,0 -0.821550689600571,-0.23217843112915362 l 8.013204022657295 -27.44930220359837" fill="red" stroke="none" /><path d="M 93.08242187328487 119.8279376855182 l -4.293669182099044 12.306995804804394 a34.03448275862069,34.03448275862069 0 0,0 -0.5514889879449258,-0.1977443300386891 l 4.504877730673696 -12.231263933725748" fill="red" stroke="none" /><path d="M 92.7421414339146 119.70592522655815 l -9.266428727397406 25.159425463675404 a47.811627906976746,47.811627906976746 0 0,0 -0.7698350090132162,-0.29108572824559553 l 9.698133957170905 -24.996191485323177" fill="red" stroke="none" /><path d="M 91.40352486487194 119.15986991738527 l -25.789425405384158 57.479609752155824 a84.0,84.0 0 0,0 -1.3141280169303222,-0.6032517186637025 l 26.7750214180819 -57.02717096315804" fill="red" stroke="none" /><line stroke="#e1ed5e" stroke-width="0.3" x1="58.666819895761336" x2="56.23545636021788" y1="174.27360380694188" y2="178.64263932499728" /><path d="M 58.180547188652646 175.14741091055294 a86.0,86.0 0 0,1 -31.652253787137756,-30.449443065178592" fill="none" id="id104" stroke="none" /><text fill="#e1ed5e" style="font-size:6.75px; font-family:Arial;" text-anchor="middle"><textPath startOffset="22.20632615414155" xlink:href="#id104">August</textPath></text><path d="M 88.54995079064634 117.60387380957326 l -13.828206984191363 21.260171577560005 a46.3616680032077,46.3616680032077 0 0,0 -0.6652354084754492,-0.4408817545594229 l 14.192117091406773 -21.018991801909266" fill="red" stroke="none" /><path d="M 87.95078237400918 117.19931262002967 l -12.377744810660978 17.668259395555747 a42.57257417802727,42.57257417802727 0 0,0 -0.5965688173199838,-0.4256360112733069 l 12.680040955829845 -17.452579122438223" fill="red" stroke="none" /><path d="M 85.44109423537348 115.13401014063109 l -10.539153355034768 10.955469890896296 a36.20184442662389,36.20184442662389 0 0,0 -0.44536896341439863,-0.43588726844214265 l 10.72617227082496 -10.772432519531584" fill="red" stroke="none" /><path d="M 83.06392112726016 112.41649034213515 l -4.327052709586937 3.17232864715658 a26.36535685645549,26.36535685645549 0 0,0 -0.26518553091960617,-0.36831950866535235 l 4.381018032882151 -3.097375533040087" fill="red" stroke="none" /><path d="M 82.6465618267979 111.8261652097733 l -28.49331568534987 19.417861481163445 a55.48075380914194,55.48075380914194 0 0,0 -0.5310218678623486,-0.7938056424610388 l 28.82334065862295 -18.924518924496585" fill="red" stroke="none" /><path d="M 82.24976979558568 111.22182372390057 l -11.790309284936955 7.453918677230824 a34.948917401764234,34.948917401764234 0 0,0 -0.31709545573142833,-0.5112588400302063 l 11.916869380336339 -7.2498635058353535" fill="red" stroke="none" /><line stroke="#e1ed5e" stroke-width="0.3" x1="26.63291911575756" x2="22.317208475507996" y1="142.92168965132927" y2="145.44649492493687" /><path d="M 25.769776987707644 143.4266507060508 a86.0,86.0 0 0,1 -11.730757126820373,-40.83630448921669" fill="none" id="id105" stroke="none" /><text fill="#e1ed5e" style="font-size:6.75px; font-family:Arial;" text-anchor="middle"><textPath startOffset="21.46611528233685" xlink:href="#id105">September</textPath></text><path d="M 79.76711848015287 105.62410040840567 l -17.863995632198616 4.965625140059858 a39.541299117882915,39.541299117882915 0 0,0 -0.17664025400923655,-0.6573440969557615 l 17.946823962549626 -4.657390109928558" fill="red" stroke="none" /><path d="M 79.67330655649465 105.27499134158121 l -14.719329734952153 3.8198213163174297 a36.20689655172414,36.20689655172414 0 0,0 -0.15135980293955026,-0.6046071734527727 l 14.782900852186764 -3.565886303467265" fill="red" stroke="none" /><line stroke="#e1ed5e" stroke-width="0.3" x1="15.007084014347285" x2="10.007500721073583" y1="101.09737516637583" y2="101.16192664675087" /><path d="M 14.007167355692545 101.11028546245083 a86.0,86.0 0 0,1 10.666146001902534,-42.60595125391555" fill="none" id="id106" stroke="none" /><text fill="#e1ed5e" style="font-size:6.75px; font-family:Arial;" text-anchor="middle"><textPath startOffset="22.20632615414155" xlink:href="#id106">October</textPath></text><path d="M 79.12142395522702 97.74499172005258 l -5.625662831630896 -0.6076044763932115 a26.658380112269448,26.658380112269448 0 0,0 0.05320206190482659,-0.4558027764488724 l 5.61437041672248 0.7043509911669457" fill="red" stroke="none" /><path d="M 80.65960295795067 91.81776055985345 l -32.3513505934328 -13.686714713874638 a56.127425821972736,56.127425821972736 0 0,0 0.38409678682063925,-0.8865483408238358 l 32.11096309676948 14.241562199285074" fill="red" stroke="none" /><line stroke="#e1ed5e" stroke-width="0.3" x1="26.266209847984243" x2="21.928928074336255" y1="57.711370442889674" y2="55.22380399835377" /><path d="M 25.398753493254645 57.213857153982495 a86.0,86.0 0 0,1 29.58750427330803,-30.492523968695096" fill="none" id="id107" stroke="none" /><text fill="#e1ed5e" style="font-size:6.75px; font-family:Arial;" text-anchor="middle"><textPath startOffset="21.46611528233685" xlink:href="#id107">November</textPath></text><path d="M 83.17141714833178 87.43820079747577 l -9.433183170261495 -7.041457612321122 a32.77145148356055,32.77145148356055 0 0,0 0.3413288053920483,-0.4491486977831009 l 9.310578424645339 7.202791085985248" fill="red" stroke="none" /><path d="M 84.07557802195018 86.31012108654704 l -19.986618153845843 -17.182060535240765 a47.356936647955095,47.356936647955095 0 0,0 0.5367302970591389,-0.6135755127519676 l 19.687895993208862 17.523551604195674" fill="red" stroke="none" /><path d="M 84.31358615837235 86.03803664274999 l -30.379061289118518 -27.039407784890773 a61.66960705693665,61.66960705693665 0 0,0 0.7125963015750146,-0.7868666343375187 l 29.90912134692746 27.55832720649785" fill="red" stroke="none" /><line stroke="#e1ed5e" stroke-width="0.3" x1="56.76296977257108" x2="54.21961505331056" y1="26.818313649435495" y2="22.513508569990535" /><path d="M 56.25429882871898 25.957352633546506 a86.0,86.0 0 0,1 42.26535254187918,-11.944610805530505" fill="none" id="id108" stroke="none" /><text fill="#e1ed5e" style="font-size:6.75px; font-family:Arial;" text-anchor="middle"><textPath startOffset="22.20632615414155" xlink:href="#id108">December</textPath></text><path d="M 90.91171255644093 81.06846463323043 l -12.047264750764343 -25.095291067578255 a48.83720930232558,48.83720930232558 0 0,0 0.760980903954399,-0.35729073804649397 l 11.613505635510336 25.298946788264757" fill="red" stroke="none" /><path d="M 91.23893434514133 80.91482961587045 l -7.819619946958866 -17.034318073405128 a39.74338412189255,39.74338412189255 0 0,0 0.6241942264782779,-0.2800577545958234 l 7.5252436020138145 17.166396158517482" fill="red" stroke="none" /><path d="M 91.90106846888425 80.62456947434976 l -11.690518649565648 -27.967742539030017 a51.31275060144347,51.31275060144347 0 0,0 0.8178669200996028,-0.33362845212401043 l 11.207367859877666 28.164831877337605" fill="red" stroke="none" /><path d="M 92.23578459929587 80.48803036053334 l -5.622362876371963 -14.129357325131034 a36.20689655172414,36.20689655172414 0 0,0 0.5810635086212457,-0.22544361398180784 l 5.37831620275104 14.224043643003393" fill="red" stroke="none" /></svg>