<?xml version="1.0" encoding="utf-8" ?>
<svg baseProfile="full" height="200mm" version="1.1" viewBox="0,0,200,200" width="200mm" xmlns="http://www.w3.org/2000/svg" xmlns:ev="http://www.w3.org/2001/xml-events" xmlns:xlink="http://www.w3.org/1999/xlink"><defs /><rect fill="#1a1a1a" height="200" width="200" x="0" y="0" /><rect fill="#1a1a1a" height="200" width="180" x="10" y="0" /><text alignment-baseline="middle" fill="#e1ed5e" style="dominant-baseline: central; font-size:9.0px; font-family:Arial;" text-anchor="middle" x="100.0" y="100.0">2023</text><line stroke="#e1ed5e" stroke-width="0.3" x1="100.0" x2="100.0" y1="15.0" y2="10.0" /><path d="M 100.0 14.0 a86.0,86.0 0 0,1 42.46469731375804,11.215312516191453" fill="none" id="id73" stroke="none" /><text fill="#e1ed5e" style="font-size:6.75px; font-family:Arial;" text-anchor="middle"><textPath startOffset="22.20632615414155" xlink:href="#id73">January</textPath></text><path d="M 104.307194497241 79.44645832069477 l 5.928466954346077 -28.290106870861784 a49.90461671071863,49.90461671071863 0 0,0 0.839246594748558,0.18342679965555878 l -6.414556273248163 28.183866573110354" fill="red" stroke="none" /><path d="M 105.01212808612495 79.60689891045804 l 9.122756809615915 -37.11822575899882 a59.222864561717465,59.222864561717465 0 0,0 0.9878687163133456,0.25182973160277644 l -9.760334414614285 36.95569303122718" fill="red" stroke="none" /><path d="M 107.08798089147638 80.2323363322302 l 21.26394267442914 -59.302991003309366 a84.0,84.0 0 0,0 1.3568706969096942,0.49974692877470117 l -22.28159569711141 58.92818080672834" fill="red" stroke="none" /><line stroke="#e1ed5e" stroke-width="0.3" x1="143.23703022742887" x2="145.7803849466894" y1="26.81831364943548" y2="22.513508569990506" /><path d="M 143.74570117128098 25.957352633546492 a86.0,86.0 0 0,1 28.547481713284135,27.462654790039103" fill="none" id="id74" stroke="none" /><text fill="#e1ed5e" style="font-size:6.75px; font-family:Arial;" text-anchor="middle"><textPath startOffset="19.985693538727396" xlink:href="#id74">February</textPath></text><line stroke="#e1ed5e" stroke-width="0.3" x1="172.23445277983987" x2="176.4835382374775" y1="55.19839476539836" y2="52.563006222186495" /><path d="M 173.08426987136738 54.67131705675599 a86.0,86.0 0 0,1 12.851231095245387,41.99856678651699" fill="none" id="id75" stroke="none" /><text fill="#e1ed5e" style="font-size:6.75px; font-family:Arial;" text-anchor="middle"><textPath startOffset="22.20632615414155" xlink:href="#id75">March</textPath></text><path d="M 120.28053869075195 94.5502522615342 l 19.071746083402452 -5.124923290820276 a40.74832492659995,40.74832492659995 0 0,0 0.17619511302266924,0.6789516449863905 l -19.157137528295422 4.795875220285035" fill="red" stroke="none" /><path d="M 120.37134235888165 94.90015583598534 l 18.933411105072985 -4.739866643446732 a40.51769432774681,40.51769432774681 0 0,0 0.16355102324053225,0.6780245793276257 l -19.01219492857434 4.4132568324597" fill="red" stroke="none" /><line stroke="#e1ed5e" stroke-width="0.3" x1="184.98032266829074" x2="189.97916517819016" y1="98.17113171792111" y2="98.06355123074" /><path d="M 185.9800911702706 98.14961562048488 a86.0,86.0 0 0,1 -9.607161424134198,41.387399972396054" fill="none" id="id76" stroke="none" /><text fill="#e1ed5e" style="font-size:6.75px; font-family:Arial;" text-anchor="middle"><textPath startOffset="21.466115282336823" xlink:href="#id76">April</textPath></text><path d="M 120.23288151984713 105.62410040840565 l 22.2318245625518 6.179743279730096 a44.07473185940523,44.07473185940523 0 0,0 -0.20947536984949816,0.7292112430328754 l -22.122156555816204 -6.561511998267553" fill="red" stroke="none" /><path d="M 120.13307415673323 105.97154293290107 l 27.747539600390542 8.23002104478368 a49.94234268805522,49.94234268805522 0 0,0 -0.2515506083200164,0.8220819426106039 l -27.601762219564392 -8.706429959946341" fill="red" stroke="none" /><path d="M 119.9155931802556 106.66101706037122 l 5.606571697750475 1.8751874167591862 a26.911850306798087,26.911850306798087 0 0,0 -0.1507181120172706,0.43805738310657966 l -5.573462754789974 -1.9714175029550662" fill="red" stroke="none" /><path d="M 119.79798401119884 107.00284435728193 l 33.94561254292722 12.007073099778804 a57.006588499022925,57.006588499022925 0 0,0 -0.33518717345179994,0.9222911441765709 l -33.7339011084702 -12.589612040961507" fill="red" stroke="none" /><path d="M 118.81262510543309 109.33194174019688 l 27.241390747690442 13.513003632117675 a51.40879210080499,51.40879210080499 0 0,0 -0.40006158046641405,0.7893594521122079 l -27.004750497437758 -13.979917295932577" fill="red" stroke="none" /><path d="M 118.64920377521936 109.65438752849418 l 26.52730168131337 13.732749859110926 a50.87115922063157,50.87115922063157 0 0,0 -0.40926451209608605,0.7741742215274475 l -26.286984660992392 -14.187339095724507" fill="red" stroke="none" /><line stroke="#e1ed5e" stroke-width="0.3" x1="174.80103733775053" x2="179.2010983576182" y1="140.37084112569926" y2="142.7455964860345" /><path d="M 175.68104954172406 140.8457921977663 a86.0,86.0 0 0,1 -30.038265399797805,32.042727171017184" fill="none" id="id77" stroke="none" /><text fill="#e1ed5e" style="font-size:6.75px; font-family:Arial;" text-anchor="middle"><textPath startOffset="22.206326154141568" xlink:href="#id77">May</textPath></text><path d="M 118.30583269289576 110.29060199501025 l 6.094562039397647 3.426050774826463 a27.991531331815356,27.991531331815356 0 0,0 -0.23972481117452937,0.41798041474726005 l -6.034685232070737 -3.5304510354320384" fill="red" stroke="none" /><path d="M 117.75023020441432 111.22182372390056 l 26.349549714776987 16.658375620945232 a52.173710855462915,52.173710855462915 0 0,0 -0.4864456592891254,0.7549744657580377 l -26.05889919211081 -17.109471686624723" fill="red" stroke="none" /><path d="M 116.93607887273984 112.41649034213515 l 14.06294038310753 10.31008208930412 a38.43743343806726,38.43743343806726 0 0,0 -0.3957934246733037,0.530229971986956 l -13.883385691739136 -10.55062494080039" fill="red" stroke="none" /><path d="M 111.1453310114006 117.79835938074945 l 7.375389102628523 11.778010512847871 a34.896686513551586,34.896686513551586 0 0,0 -0.5118526333150272,0.3144216932304074 l -7.1715572693811875 -11.903220672906656" fill="red" stroke="none" /><line stroke="#e1ed5e" stroke-width="0.3" x1="143.8653032363475" x2="146.44561519142675" y1="172.8068346515853" y2="177.08958963109032" /><path d="M 144.38136562736335 173.6633856474863 a86.0,86.0 0 0,1 -40.68145358897372,12.25698825130547" fill="none" id="id78" stroke="none" /><text fill="#e1ed5e" style="font-size:6.75px; font-family:Arial;" text-anchor="middle"><textPath startOffset="21.466115282336833" xlink:href="#id78">June</textPath></text><path d="M 110.8373102113329 117.98757091392108 l 9.115359976396025 15.129509147932307 a38.6632905925439,38.6632905925439 0 0,0 -0.5730122973412268,0.33854576542755316 l -8.853579808026417 -15.284173485653609" fill="red" stroke="none" /><path d="M 109.57404056367764 118.69057910512821 l 22.360686770324758 43.65285295649608 a70.04662969136662,70.04662969136662 0 0,0 -1.0778711745122784,0.5404669831389867 l -21.605961688129717 -44.031287780544375" fill="red" stroke="none" /><path d="M 109.2508944713604 118.85261126421891 l 7.168115150549284 14.608067235966523 a37.27198522559718,37.27198522559718 0 0,0 -0.5784032296906956,0.2776686997579171 l -6.915599252858356 -14.729290212224" fill="red" stroke="none" /><path d="M 108.92500713936063 119.00905698771935 l 12.198162661238086 25.980435147254823 a49.70153624374028,49.70153624374028 0 0,0 -0.7775497769330589,0.3569349661816979 l -11.749144888537607 -26.186557183770596" fill="red" stroke="none" /><line stroke="#e1ed5e" stroke-width="0.3" x1="102.19456741930631" x2="102.32365962044197" y1="184.97166512339345" y2="189.96999836594603" /><path d="M 102.22038585953345 185.97133177190398 a86.0,86.0 0 0,1 -42.740103519485714,-10.115201625700543" fill="none" id="id79" stroke="none" /><text fill="#e1ed5e" style="font-size:6.75px; font-family:Arial;" text-anchor="middle"><textPath startOffset="22.20632615414155" xlink:href="#id79">July</textPath></text><path d="M 91.40352486487194 119.15986991738527 l -3.1429235723555293 7.004964925745552 a28.67772767116635,28.67772767116635 0 0,0 -0.4486453023164007,-0.20595105363096095 l 3.2630368704393495 -6.949826801780517" fill="red" stroke="none" /><path d="M 91.07499286063937 119.00905698771935 l -11.942714460237056 25.436365060316273 a49.10048213394983,49.10048213394983 0 0,0 -0.7619631010730806,-0.3657885929364806 l 12.378790229310377 -25.22702219088023" fill="red" stroke="none" /><path d="M 90.42595943632237 118.69057910512821 l -3.0562233927494544 5.966403077697509 a27.703615972887118,27.703615972887118 0 0,0 -0.42255810614419204,-0.22106242980519616 l 3.158472401420142 -5.912911228947596" fill="red" stroke="none" /><line stroke="#e1ed5e" stroke-width="0.3" x1="58.666819895761336" x2="56.23545636021788" y1="174.27360380694188" y2="178.64263932499728" /><path d="M 58.180547188652646 175.14741091055294 a86.0,86.0 0 0,1 -31.652253787137756,-30.449443065178592" fill="none" id="id80" stroke="none" /><text fill="#e1ed5e" style="font-size:6.75px; font-family:Arial;" text-anchor="middle"><textPath startOffset="22.20632615414155" xlink:href="#id80">August</textPath></text><path d="M 89.4739219176387 118.17145234162733 l -14.386274350736166 24.835413217772214 a49.701265466737595,49.701265466737595 0 0,0 -0.7366014601807759,-0.4351971263252892 l 14.811643681945325 -24.584097519153172" fill="red" stroke="none" /><path d="M 88.8546689885994 117.79835938074946 l -9.19103149564021 14.677471801587563 a38.317714584790004,38.317714584790004 0 0,0 -0.5560049970455966,-0.35486869558044437 l 9.44231829473273 -14.517088677183315" fill="red" stroke="none" /><path d="M 88.24862548938628 117.40417183066458 l -5.762511899548501 8.534469494220362 a31.297752810211364,31.297752810211364 0 0,0 -0.4438962000617164,-0.30531585406409945 l 5.908564984233108 -8.434012850791163" fill="red" stroke="none" /><path d="M 82.85270091963577 112.12312394758628 l -30.07337835948627 21.26184955811518 a57.83034526833464,57.83034526833464 0 0,0 -0.5676711862911946,-0.8177726827701869 l 30.434910452939597 -20.741035613157983" fill="red" stroke="none" /><path d="M 82.24976979558568 111.22182372390057 l -24.398380945587515 15.424832634106759 a49.865315770942345,49.865315770942345 0 0,0 -0.45243361468988863,-0.7294670448791922 l 24.66027919994536 -15.002569257862303" fill="red" stroke="none" /><line stroke="#e1ed5e" stroke-width="0.3" x1="26.63291911575756" x2="22.317208475507996" y1="142.92168965132927" y2="145.44649492493687" /><path d="M 25.769776987707644 143.4266507060508 a86.0,86.0 0 0,1 -11.730757126820373,-40.83630448921669" fill="none" id="id81" stroke="none" /><text fill="#e1ed5e" style="font-size:6.75px; font-family:Arial;" text-anchor="middle"><textPath startOffset="21.46611528233685" xlink:href="#id81">September</textPath></text><path d="M 81.51974371655577 109.97397251340807 l -25.2778288782744 13.642687988932638 a49.72440718905597,49.72440718905597 0 0,0 -0.4000387559331166,-0.7567225676840843 l 25.5089201424324 -13.205550406162427" fill="red" stroke="none" /><path d="M 80.45479744820244 107.68017299344265 l -26.71571406552948 10.497783541657135 a49.704230303539184,49.704230303539184 0 0,0 -0.30604958603091764,-0.798998894246287 l 26.892457931153906 -10.036361080577691" fill="red" stroke="none" /><line stroke="#e1ed5e" stroke-width="0.3" x1="15.007084014347285" x2="10.007500721073583" y1="101.09737516637583" y2="101.16192664675087" /><path d="M 14.007167355692545 101.11028546245083 a86.0,86.0 0 0,1 10.666146001902534,-42.60595125391555" fill="none" id="id82" stroke="none" /><text fill="#e1ed5e" style="font-size:6.75px; font-family:Arial;" text-anchor="middle"><textPath startOffset="22.20632615414155" xlink:href="#id82">October</textPath></text><path d="M 81.26839172434947 90.50648371742162 l -35.81082678546559 -18.14957168532849 a61.14750636614306,61.14750636614306 0 0,0 0.48391136875404056,-0.9347627385377005 l 35.49310598355144 18.763307146126525" fill="red" stroke="none" /><line stroke="#e1ed5e" stroke-width="0.3" x1="26.266209847984243" x2="21.928928074336255" y1="57.711370442889674" y2="55.22380399835377" /><path d="M 25.398753493254645 57.213857153982495 a86.0,86.0 0 0,1 29.58750427330803,-30.492523968695096" fill="none" id="id83" stroke="none" /><text fill="#e1ed5e" style="font-size:6.75px; font-family:Arial;" text-anchor="middle"><textPath startOffset="21.46611528233685" xlink:href="#id83">November</textPath></text><path d="M 81.96595687620814 89.24020034530311 l -24.856833648066846 -14.830537349136181 a49.944896218017284,49.944896218017284 0 0,0 0.44685033121904383,-0.734504453140564 l 24.597867518561586 15.256209575483819" fill="red" stroke="none" /><path d="M 82.34701348167596 88.62581576622439 l -43.675688554894585 -28.141149240935288 a72.95661701212602,72.95661701212602 0 0,0 0.689278013719495,-1.0498177035411485 l 43.18481390581717 28.888785008454104" fill="red" stroke="none" /><line stroke="#e1ed5e" stroke-width="0.3" x1="56.762969772571076" x2="54.21961505331055" y1="26.818313649435495" y2="22.513508569990535" /><path d="M 56.25429882871897 25.957352633546506 a86.0,86.0 0 0,1 42.265352541879196,-11.944610805530505" fill="none" id="id84" stroke="none" /><text fill="#e1ed5e" style="font-size:6.75px; font-family:Arial;" text-anchor="middle"><textPath startOffset="22.20632615414155" xlink:href="#id84">December</textPath></text></svg>