<?xml version="1.0" encoding="utf-8" ?>
<svg baseProfile="full" height="200mm" version="1.1" viewBox="0,0,200,200" width="200mm" xmlns="http://www.w3.org/2000/svg" xmlns:ev="http://www.w3.org/2001/xml-events" xmlns:xlink="http://www.w3.org/1999/xlink"><defs /><rect fill="#1a1a1a" height="200" width="200" x="0" y="0" /><rect fill="#1a1a1a" height="200" width="180" x="10" y="0" /><text alignment-baseline="middle" fill="#e1ed5e" style="dominant-baseline: central; font-size:9.0px; font-family:Arial;" text-anchor="middle" x="100.0" y="100.0">2024</text><line stroke="#e1ed5e" stroke-width="0.3" x1="100.0" x2="100.0" y1="15.0" y2="10.0" /><path d="M 100.0 14.0 a86.0,86.0 0 0,1 42.35913384403234,11.155469271406648" fill="none" id="id85" stroke="none" /><text fill="#e1ed5e" style="font-size:6.75px; font-family:Arial;" text-anchor="middle"><textPath startOffset="22.145653131862478" xlink:href="#id85">January</textPath></text><line stroke="#e1ed5e" stroke-width="0.3" x1="143.13028292997686" x2="145.6673583964461" y1="26.7553504044142" y2="22.446841604673864" /><path d="M 143.63769802327073 25.89364864446614 a86.0,86.0 0 0,1 29.32050498858742,28.57503671076993" fill="none" id="id86" stroke="none" /><text fill="#e1ed5e" style="font-size:6.75px; font-family:Arial;" text-anchor="middle"><textPath startOffset="20.669276256404974" xlink:href="#id86">February</textPath></text><path d="M 117.21940702142032 87.97951657250589 l 16.3571398342411 -11.418553963798512 a40.94841843808916,40.94841843808916 0 0,0 0.3974146637553881,0.5798398713002327 l -16.550744234811813 11.136079357428232" fill="red" stroke="none" /><path d="M 117.81537515405839 88.88188828441811 l 22.738581011901758 -14.19055628960708 a47.803263872956336,47.803263872956336 0 0,0 0.42848122211819517,0.6998918747160973 l -22.978830198475354 13.79812729876643" fill="red" stroke="none" /><line stroke="#e1ed5e" stroke-width="0.3" x1="172.87174338648825" x2="177.1583165268699" y1="56.24261187166439" y2="53.66864786411523" /><path d="M 173.72905801456457 55.72781907015455 a86.0,86.0 0 0,1 12.242430191666344,42.057860355516425" fill="none" id="id87" stroke="none" /><text fill="#e1ed5e" style="font-size:6.75px; font-family:Arial;" text-anchor="middle"><textPath startOffset="22.145653131862474" xlink:href="#id87">March</textPath></text><path d="M 118.18653347947321 89.5 l 28.86910321866399 -16.66758451455875 a54.335169029117495,54.335169029117495 0 0,0 0.4594339583569116,0.8117757823050329 l -29.150970542042277 16.1695519621546" fill="red" stroke="none" /><path d="M 118.53625476483649 90.13048839642627 l 16.896407597078728 -8.99638535150176 a40.14219264032559,40.14219264032559 0 0,0 0.3186371241331257,0.6110286994049066 l -17.048352790186797 8.705010408992354" fill="red" stroke="none" /><path d="M 119.0197475246899 91.09779779509293 l 22.902119693390937 -10.71934841232203 a46.28658768666021,46.28658768666021 0 0,0 0.33065272484990094,0.7225358771130167 l -23.08275688309589 10.32462355299433" fill="red" stroke="none" /><path d="M 119.58574465831526 92.42381321644754 l 26.194716807763182 -10.132679187850984 a49.08619547327155,49.08619547327155 0 0,0 0.29725037678507826,0.7884919398916401 l -26.3647978683627 9.681518967765186" fill="red" stroke="none" /><path d="M 120.16314734710363 94.1308016681162 l 20.512744611842855 -5.970961000564257 a42.36410697363565,42.36410697363565 0 0,0 0.19725839341884802,0.7000004490846035 l -20.612221497336286 5.61795262757664" fill="red" stroke="none" /><path d="M 120.26092885502905 94.47779374421319 l 60.782786565087164 -16.56661876736044 a84.0,84.0 0 0,0 0.3672420767810789,1.3944779825088056 l -61.058218122672976 15.520760280478832" fill="red" stroke="none" /><path d="M 120.65975698304385 96.23510406497455 l 21.042194023075602 -3.8345887033673276 a42.38873534898104,42.38873534898104 0 0,0 0.12431038108287502,0.7169892438877722 l -21.10491922165071 3.4728064265589627" fill="red" stroke="none" /><path d="M 120.99303781780057 99.45929381324524 l 50.480241871297984 -1.3001919648591036 a71.49698326167842,71.49698326167842 0 0,0 0.021069712923996523,1.2272051483609536 l -50.495123015820646 0.4334399005290834" fill="red" stroke="none" /><line stroke="#e1ed5e" stroke-width="0.3" x1="184.99686870605535" x2="189.99668451229388" y1="99.2704041080226" y2="99.22748670261217" /><path d="M 185.99683186730306 99.26182062694052 a86.0,86.0 0 0,1 -10.086455211305974,41.156179273409016" fill="none" id="id88" stroke="none" /><text fill="#e1ed5e" style="font-size:6.75px; font-family:Arial;" text-anchor="middle"><textPath startOffset="21.40746469413373" xlink:href="#id88">April</textPath></text><line stroke="#e1ed5e" stroke-width="0.3" x1="174.33088141563837" x2="178.70328620479359" y1="141.23008692659167" y2="143.65538615756765" /><path d="M 175.20536237346943 141.71514677278685 a86.0,86.0 0 0,1 -30.301960400862466,31.631185727798858" fill="none" id="id89" stroke="none" /><text fill="#e1ed5e" style="font-size:6.75px; font-family:Arial;" text-anchor="middle"><textPath startOffset="22.145653131862474" xlink:href="#id89">May</textPath></text><line stroke="#e1ed5e" stroke-width="0.3" x1="143.1302829299769" x2="145.66735839644613" y1="173.24464959558577" y2="177.55315839532614" /><path d="M 143.63769802327073 174.10635135553383 a86.0,86.0 0 0,1 -40.68552437913181,11.842963189579606" fill="none" id="id90" stroke="none" /><text fill="#e1ed5e" style="font-size:6.75px; font-family:Arial;" text-anchor="middle"><textPath startOffset="21.407464694133747" xlink:href="#id90">June</textPath></text><line stroke="#e1ed5e" stroke-width="0.3" x1="101.45913802915013" x2="101.54496967792366" y1="184.9874750549273" y2="189.98673829345242" /><path d="M 101.47630435890484 185.9873277026323 a86.0,86.0 0 0,1 -42.54439059252881,-10.42667462771756" fill="none" id="id91" stroke="none" /><text fill="#e1ed5e" style="font-size:6.75px; font-family:Arial;" text-anchor="middle"><textPath startOffset="22.145653131862474" xlink:href="#id91">July</textPath></text><path d="M 91.59046798132341 119.24265499422711 l -7.7530325218759835 17.740455669370284 a40.36061157717284,40.36061157717284 0 0,0 -0.6324826820284414,-0.28290145881638695 l 8.05642860676006 -17.604750459644045" fill="red" stroke="none" /><line stroke="#e1ed5e" stroke-width="0.3" x1="58.13341422392154" x2="55.67067388415222" y1="173.97424548756322" y2="178.32567169271397" /><path d="M 57.64086615596768 174.84453072859336 a86.0,86.0 0 0,1 -31.369924170532247,-30.572349798747897" fill="none" id="id92" stroke="none" /><text fill="#e1ed5e" style="font-size:6.75px; font-family:Arial;" text-anchor="middle"><textPath startOffset="22.145653131862474" xlink:href="#id92">August</textPath></text><path d="M 85.08716467003676 114.78537596483092 l -16.677000736643652 16.534463125306058 a44.48426759369171,44.48426759369171 0 0,0 -0.5329918508434359,-0.5468965929846533 l 16.958379388637898 -16.245743840253667" fill="red" stroke="none" /><line stroke="#e1ed5e" stroke-width="0.3" x1="26.387840678322732" x2="22.057713659400548" y1="142.50000000000003" y2="145.00000000000006" /><path d="M 25.521815274538298 143.00000000000003 a86.0,86.0 0 0,1 -11.493303480769221,-40.785679425670985" fill="none" id="id93" stroke="none" /><text fill="#e1ed5e" style="font-size:6.75px; font-family:Arial;" text-anchor="middle"><textPath startOffset="21.40746469413373" xlink:href="#id93">September</textPath></text><path d="M 81.81346652052679 110.50000000000001 l -21.42528825088124 12.369895939111625 a45.73979187822323,45.73979187822323 0 0,0 -0.3867552823065995,-0.6833595256603677 l 21.63447689820922 -12.000279643352137" fill="red" stroke="none" /><path d="M 81.63589988554817 110.18625677009913 l -22.39835945817655 12.42399242260803 a46.61331868647069,46.61331868647069 0 0,0 -0.38212855151136116,-0.7030734947451573 l 22.60833335930324 -12.037664094388287" fill="red" stroke="none" /><path d="M 80.9802524753101 108.90220220490708 l -23.098750935142338 10.811381761955127 a46.50369130864148,46.50369130864148 0 0,0 -0.3322036256133871,-0.725924875174271 l 23.28093902561078 -10.413267904566167" fill="red" stroke="none" /><line stroke="#e1ed5e" stroke-width="0.3" x1="15.003131293944662" x2="10.003315487706104" y1="100.72959589197737" y2="100.7725132973878" /><path d="M 14.003168132696942 100.73817937305945 a86.0,86.0 0 0,1 10.791469493833604,-42.45332614584628" fill="none" id="id94" stroke="none" /><text fill="#e1ed5e" style="font-size:6.75px; font-family:Arial;" text-anchor="middle"><textPath startOffset="22.145653131862435" xlink:href="#id94">October</textPath></text><line stroke="#e1ed5e" stroke-width="0.3" x1="26.387840678322718" x2="22.05771365940052" y1="57.49999999999999" y2="54.99999999999999" /><path d="M 25.521815274538284 56.99999999999999 a86.0,86.0 0 0,1 29.574782752854787,-30.34633250058573" fill="none" id="id95" stroke="none" /><text fill="#e1ed5e" style="font-size:6.75px; font-family:Arial;" text-anchor="middle"><textPath startOffset="21.40746469413373" xlink:href="#id95">November</textPath></text><line stroke="#e1ed5e" stroke-width="0.3" x1="56.869717070023135" x2="54.33264160355391" y1="26.7553504044142" y2="22.446841604673864" /><path d="M 56.362301976729285 25.89364864446614 a86.0,86.0 0 0,1 42.16139366436587,-11.88097634709845" fill="none" id="id96" stroke="none" /><text fill="#e1ed5e" style="font-size:6.75px; font-family:Arial;" text-anchor="middle"><textPath startOffset="22.145653131862474" xlink:href="#id96">December</textPath></text></svg>