<?xml version="1.0" encoding="utf-8" ?>
<svg baseProfile="full" height="200mm" version="1.1" viewBox="0,0,200,200" width="200mm" xmlns="http://www.w3.org/2000/svg" xmlns:ev="http://www.w3.org/2001/xml-events" xmlns:xlink="http://www.w3.org/1999/xlink"><defs /><rect fill="#1a1a1a" height="200" width="200" x="0" y="0" /><rect fill="#1a1a1a" height="200" width="180" x="10" y="0" /><text alignment-baseline="middle" fill="#e1ed5e" style="dominant-baseline: central; font-size:9.0px; font-family:Arial;" text-anchor="middle" x="100.0" y="100.0">2020</text><line stroke="#e1ed5e" stroke-width="0.3" x1="100.0" x2="100.0" y1="15.0" y2="10.0" /><path d="M 100.0 14.0 a86.0,86.0 0 0,1 42.35913384403234,11.155469271406648" fill="none" id="id37" stroke="none" /><text fill="#e1ed5e" style="font-size:6.75px; font-family:Arial;" text-anchor="middle"><textPath startOffset="22.145653131862478" xlink:href="#id37">January</textPath></text><line stroke="#e1ed5e" stroke-width="0.3" x1="143.13028292997686" x2="145.6673583964461" y1="26.7553504044142" y2="22.446841604673864" /><path d="M 143.63769802327073 25.89364864446614 a86.0,86.0 0 0,1 29.32050498858742,28.57503671076993" fill="none" id="id38" stroke="none" /><text fill="#e1ed5e" style="font-size:6.75px; font-family:Arial;" text-anchor="middle"><textPath startOffset="20.669276256404974" xlink:href="#id38">February</textPath></text><line stroke="#e1ed5e" stroke-width="0.3" x1="172.87174338648825" x2="177.1583165268699" y1="56.24261187166439" y2="53.66864786411523" /><path d="M 173.72905801456457 55.72781907015455 a86.0,86.0 0 0,1 12.242430191666344,42.057860355516425" fill="none" id="id39" stroke="none" /><text fill="#e1ed5e" style="font-size:6.75px; font-family:Arial;" text-anchor="middle"><textPath startOffset="22.145653131862474" xlink:href="#id39">March</textPath></text><path d="M 120.98066250479742 99.09900007780936 l 5.422544841087659 -0.2328674072507522 a26.427542702085915,26.427542702085915 0 0,0 0.015573767278213097,0.4534132418345603 l -5.425743295362721 0.13974790085207198" fill="#ff0100" stroke="none" /><line stroke="#e1ed5e" stroke-width="0.3" x1="184.99686870605535" x2="189.99668451229388" y1="99.2704041080226" y2="99.22748670261217" /><path d="M 185.99683186730306 99.26182062694052 a86.0,86.0 0 0,1 -10.086455211305974,41.156179273409016" fill="none" id="id40" stroke="none" /><text fill="#e1ed5e" style="font-size:6.75px; font-family:Arial;" text-anchor="middle"><textPath startOffset="21.40746469413373" xlink:href="#id40">April</textPath></text><path d="M 120.99922638620191 99.81974689727618 l 5.348019200780239 -0.04590631276782012 a26.34821622239285,26.34821622239285 0 0,0 0.0,0.45231883098329334 l -5.348019200780239 -0.045906312767819465" fill="#ff0000" stroke="none" /><path d="M 120.99922638620191 100.18025310272382 l 5.443822156794935 0.04672866592284379 a26.44402270779893,26.44402270779893 0 0,0 -0.007792887777789562,0.4538966447242877 l -5.442217837418477 -0.14017222661620252" fill="#ff0200" stroke="none" /><path d="M 120.99303781780057 100.54070618675476 l 10.261570800221158 0.2643016635161204 a31.26497397255779,31.26497397255779 0 0,0 -0.018424468521231998,0.536408298137081 l -10.25552164470308 -0.4404162262173121" fill="#ff4b07" stroke="none" /><path d="M 120.98066250479742 100.90099992219065 l 5.549920691365479 0.23833747432623426 a26.555035952369245,26.555035952369245 0 0,0 -0.023467583771406723,0.45526485574990194 l -5.5450115181375 -0.33357412345286686" fill="#ff0300" stroke="none" /><path d="M 120.96210409425399 101.26102812881392 l 6.0707096762940465 0.36519881922387903 a27.081684483053415,27.081684483053415 0 0,0 -0.031899695194677925,0.4638145671098781 l -6.063546019934303 -0.4693568104881006" fill="#ff0b01" stroke="none" /><path d="M 120.93736805541906 101.62068470465957 l 5.585590350621538 0.43236001888037806 a26.602299059393623,26.602299059393623 0 0,0 -0.03915146151605497,0.4549993292167875 l -5.577345266407741 -0.5281803954728229" fill="#ff0400" stroke="none" /><path d="M 120.592083275326 104.11899336999214 l 5.499586960870053 1.100071417089795 a26.608530454840185,26.608530454840185 0 0,0 -0.09343685463521569,0.447129173951632 l -5.479892395410473 -1.1943170423268359" fill="#ff0400" stroke="none" /><path d="M 120.51834098615036 104.47187691870673 l 6.764182711154772 1.4742221391264303 a27.92296891986203,27.92296891986203 0 0,0 -0.10609283966037689,0.46746462698625824 l -6.737879009936731 -1.5901211000517055" fill="#ff1902" stroke="none" /><path d="M 120.43855184770803 104.8234425847677 l 61.315655543124095 14.470327754303124 a84.0,84.0 0 0,0 -0.34324989393481653,1.4005767015676016 l -61.05821812267298 -15.520760280478825" fill="#4dd2ff" stroke="none" /><path d="M 120.35273937422433 105.17358676015961 l 10.044323715179194 2.5532278103762 a31.3637546838484,31.3637546838484 0 0,0 -0.13712012387796163,0.5206674447075409 l -9.999014110496503 -2.725275759456544" fill="#ff4d07" stroke="none" /><path d="M 120.26092885502905 105.52220625578681 l 7.580840599535616 2.0661918159041943 a28.85737187714041,28.85737187714041 0 0,0 -0.13436749223387645,0.47682282754056604 l -7.54425461522716 -2.196022567347769" fill="#ff2703" stroke="none" /><path d="M 120.16314734710363 105.8691983318838 l 6.878783915206895 2.0023137452457704 a28.164281435462264,28.164281435462264 0 0,0 -0.1391096626161715,0.4630508238834762 l -6.843397932587093 -2.12010217271997" fill="#ff1c02" stroke="none" /><line stroke="#e1ed5e" stroke-width="0.3" x1="174.33088141563837" x2="178.70328620479359" y1="141.23008692659167" y2="143.65538615756765" /><path d="M 175.20536237346943 141.71514677278685 a86.0,86.0 0 0,1 -30.301960400862466,31.631185727798858" fill="none" id="id41" stroke="none" /><text fill="#e1ed5e" style="font-size:6.75px; font-family:Arial;" text-anchor="middle"><textPath startOffset="22.145653131862474" xlink:href="#id41">May</textPath></text><path d="M 117.81537515405839 111.11811171558189 l 8.941306522802591 5.580036566400025 a31.539628571115472,31.539628571115472 0 0,0 -0.2905885781524503,0.4568535103355802 l -8.844200253024251 -5.732703751414277" fill="#ff5007" stroke="none" /><line stroke="#e1ed5e" stroke-width="0.3" x1="143.1302829299769" x2="145.66735839644613" y1="173.24464959558577" y2="177.55315839532614" /><path d="M 143.63769802327073 174.10635135553383 a86.0,86.0 0 0,1 -40.68552437913181,11.842963189579606" fill="none" id="id42" stroke="none" /><text fill="#e1ed5e" style="font-size:6.75px; font-family:Arial;" text-anchor="middle"><textPath startOffset="21.407464694133747" xlink:href="#id42">June</textPath></text><line stroke="#e1ed5e" stroke-width="0.3" x1="101.45913802915013" x2="101.54496967792366" y1="184.9874750549273" y2="189.98673829345242" /><path d="M 101.47630435890484 185.9873277026323 a86.0,86.0 0 0,1 -42.54439059252881,-10.42667462771756" fill="none" id="id43" stroke="none" /><text fill="#e1ed5e" style="font-size:6.75px; font-family:Arial;" text-anchor="middle"><textPath startOffset="22.145653131862474" xlink:href="#id43">July</textPath></text><line stroke="#e1ed5e" stroke-width="0.3" x1="58.13341422392154" x2="55.67067388415222" y1="173.97424548756322" y2="178.32567169271397" /><path d="M 57.64086615596768 174.84453072859336 a86.0,86.0 0 0,1 -31.369924170532247,-30.572349798747897" fill="none" id="id44" stroke="none" /><text fill="#e1ed5e" style="font-size:6.75px; font-family:Arial;" text-anchor="middle"><textPath startOffset="22.145653131862474" xlink:href="#id44">August</textPath></text><line stroke="#e1ed5e" stroke-width="0.3" x1="26.387840678322732" x2="22.057713659400534" y1="142.50000000000003" y2="145.00000000000006" /><path d="M 25.521815274538284 143.00000000000003 a86.0,86.0 0 0,1 -11.493303480769212,-40.785679425670985" fill="none" id="id45" stroke="none" /><text fill="#e1ed5e" style="font-size:6.75px; font-family:Arial;" text-anchor="middle"><textPath startOffset="21.40746469413373" xlink:href="#id45">September</textPath></text><line stroke="#e1ed5e" stroke-width="0.3" x1="15.003131293944662" x2="10.003315487706104" y1="100.72959589197737" y2="100.7725132973878" /><path d="M 14.003168132696942 100.73817937305945 a86.0,86.0 0 0,1 10.791469493833604,-42.45332614584628" fill="none" id="id46" stroke="none" /><text fill="#e1ed5e" style="font-size:6.75px; font-family:Arial;" text-anchor="middle"><textPath startOffset="22.145653131862435" xlink:href="#id46">October</textPath></text><line stroke="#e1ed5e" stroke-width="0.3" x1="26.387840678322718" x2="22.05771365940052" y1="57.49999999999999" y2="54.99999999999999" /><path d="M 25.521815274538284 56.99999999999999 a86.0,86.0 0 0,1 29.574782752854787,-30.34633250058573" fill="none" id="id47" stroke="none" /><text fill="#e1ed5e" style="font-size:6.75px; font-family:Arial;" text-anchor="middle"><textPath startOffset="21.40746469413373" xlink:href="#id47">November</textPath></text><line stroke="#e1ed5e" stroke-width="0.3" x1="56.869717070023135" x2="54.33264160355391" y1="26.7553504044142" y2="22.446841604673864" /><path d="M 56.362301976729285 25.89364864446614 a86.0,86.0 0 0,1 42.16139366436587,-11.88097634709845" fill="none" id="id48" stroke="none" /><text fill="#e1ed5e" style="font-size:6.75px; font-family:Arial;" text-anchor="middle"><textPath startOffset="22.145653131862474" xlink:href="#id48">December</textPath></text></svg>